<svg xmlns="http://www.w3.org/2000/svg" xmlns:xlink="http://www.w3.org/1999/xlink" width="1024" height="1024" viewBox="0 0 1024 1024">
  <defs>
    <linearGradient id="linear-gradient" x1="0.5" x2="0.5" y2="1" gradientUnits="objectBoundingBox">
      <stop offset="0" stop-color="#ffc11f"/>
      <stop offset="0.246" stop-color="#fe650d"/>
      <stop offset="0.493" stop-color="#f33c04"/>
      <stop offset="0.739" stop-color="#da1f05"/>
      <stop offset="1" stop-color="#a10100"/>
    </linearGradient>
  </defs>
  <path id="Path_101" data-name="Path 101" d="M825.734,152H-90V-872H934V152ZM168.422-250.283l.557,100.548,15.282,12.514,56.386.093V62.488H629.337V-136.719l70.9-.5,9.1-16.361V-352.706l-4.566.915a1.54,1.54,0,0,1-.239.024.349.349,0,0,1-.34-.156c-.212-.375.29-1.359.828-2.4l.138-.273c.553-1.1,1.027-2.119.764-2.581a.592.592,0,0,0-.566-.253,2.332,2.332,0,0,0-.584.083c-1.952.467-4.184,1.174-6.766,2-7.517,2.386-17.809,5.658-32.378,6.554-8.621.526-16.064.984-23.392.984a211.327,211.327,0,0,1-27.465-1.967c-17.353-2.2-21.173-3.852-28.786-7.159-1.856-.808-3.955-1.719-6.522-2.756-13.225-5.351-17.57-10.561-17.552-11.482.005-.093.078-.136.23-.136.742,0,3.208,1.066,6.936,2.687,7.268,3.155,19.425,8.434,31.779,11.278,1.924.438,3.673.847,5.289,1.227,10.992,2.561,15.539,3.618,23.723,3.618,2.913,0,6.412-.136,11.351-.438,16.244-1.008,37.633-9.88,46.766-13.668,1.354-.56,2.421-1,3.1-1.261a242.464,242.464,0,0,0,59.225-32.863,233.752,233.752,0,0,0,46.136-46.133,209.262,209.262,0,0,0,29.951-55.277,179.4,179.4,0,0,0,10.674-60.287,177.939,177.939,0,0,0-9.165-55.624A207.806,207.806,0,0,0,802.121-670a226.856,226.856,0,0,0-39.834-44.492,226.888,226.888,0,0,0-51.327-33.282,338.97,338.97,0,0,0-69.748-23.982,324.759,324.759,0,0,0-71.152-7.961c-2.389,0-4.888-.014-7.484-.024H562.5c-2.826-.014-5.749-.024-8.815-.024-15.765,0-34.425.356-53.284,3.02-21.749,3.073-47.028,5.935-62.466,14.2-32.152,17.218-26.37,9.392-56.2,42s-55.907,91.9-55.907,91.093c0-2.3,22.107-53.762,45.219-86.374s40.466-40.536,40.466-40.536,10.738-7.151,10.508-8.642c-.383-2.474-5.468-4.743-19.913-10.61-32.243-13.118-86.415-23.009-126.01-23.009-12.161,0-21.932.945-29.048,2.81a63.09,63.09,0,0,1-12.023,1.5,72.033,72.033,0,0,0-13.183,1.743c-19.9,5.015-39.778,10.688-47.263,13.483a86.353,86.353,0,0,1-9.6,3.208c-.553,0-5.791,2.343-11.678,5.23-37.472,18.348-68.477,41.881-92.164,69.954a214.832,214.832,0,0,0-28.354,42.928,188.329,188.329,0,0,0-15.935,46.181,176.254,176.254,0,0,0,2.481,80.867c7.332,27.628,21.173,53.986,41.136,78.348,16.695,20.354,39.613,39.574,66.287,55.575s54.59,27.283,80.758,32.634l2.624.536.576.121,1.615.331.193.039c4.626.949,9.409,1.933,12.23,2.523a269.937,269.937,0,0,0,54.292,5.089,373.173,373.173,0,0,0,77.7-8.419l-15.35,17.369c-12.01,3.091-19.457,4.3-43.646,7.733-5.063.716-14.849,1.115-27.548,1.115-19.618,0-44.253-1.028-51.525-2.741-3.894-.921-12.543-2.591-19.273-3.725-6.574-1.106-13.068-2.581-14.182-3.214-1.146-.658-5.5-1.69-9.7-2.3l-7.659-1.13ZM614,46.253H255.989v-205.6H248.32v-.243l-34.121-.321-37.008-.346,14.863-17.115c8.23-9.481,61.136-69.442,117.931-133.665l9.942-11.248c7.31-8.268,14.5-16.4,21.46-24.278,2.14-.551,4.644-1.218,8.386-2.236,27.31-7.459,68.22-24.741,70.609-29.82.612-1.305.737-2.279.373-2.9-.331-.57-1.081-.857-2.232-.857-2.219,0-6.016,1.076-11.291,3.2a313.66,313.66,0,0,1-50.494,15.246c36.814-41.673,63.47-71.887,67.9-76.981,6.379-7.348,12.165-13.406,12.9-13.5.8,0,28.179,30.059,61.031,67.008,33.284,37.421,60.05,66.735,60.938,66.735.681-.253,1.5-4.543,1.818-9.568l.584-9.116c6.4.176,11.742.337,16.34.473,12.7.375,19.7.58,27.678.6h1c.672,0,1.409,0,2.168,0h.087c.851.005,1.731.005,2.6.005.833,0,1.647,0,2.4-.01v40.669l.585,41.746L657.5-207.729l42.738,48.138H625.06l-2.176-2.454h-1.216v2.7H614ZM270.921-136.607V38.6H613.59v-.457H601V-153.581H270.921ZM268.481,38.6h2.44l-2.44-.457ZM406.85-335.731c-15.466,17.685-56.04,63.681-92.372,104.711l-56.284,63.564H618.087l-50.558-57c-31.677-35.7-73.2-82.663-92.56-104.692-19.314-21.966-35.931-39.832-37.036-39.832S422.881-354.065,406.85-335.731ZM489.7,23.538c-.676-1.417-1.1-33.872-1.205-63.429s.073-62.635.736-65.4l.709-2.985,31.281.356,31.29.351.3,65.756c.234,51.62-.019,65.985-1.183,66.813-1.243.881-8.87,1.392-20.93,1.392C511.989,26.391,490.48,25.169,489.7,23.538ZM358.1-45.023v-14.4c0-.409,0-.808,0-1.193l-.005-.054v-.063c-.018-6.038-.027-9.072,1.363-10.547,1.142-1.218,3.144-1.412,7.493-1.412h.82c.3,0,.608,0,.93,0h.12c.8.005,1.592.01,2.44.01,11.36,0,11.6.063,12.722,3.375,1.643,4.855,1.459,20.768-.263,22.7-.916,1.018-5.717,1.578-13.514,1.578Zm-4.116-.658H328.145l-.337-11.744c-.014-.507-.032-1-.046-1.471v-.04l-.028-.8v-.073c-.211-6.505-.318-9.768,1.133-11.355,1.252-1.373,3.595-1.525,8.275-1.525.544,0,1.114,0,1.717.005h1.013c.368,0,.745,0,1.132,0,11.889,0,12.378.107,13.022,2.965.358,1.651.5,7.835.308,13.5L353.99-45.69v0l0,0ZM359.72-75.5c-1.657-1.758-1.648-5.463-1.629-13.586v-.059c0-.413,0-.837,0-1.271v-17.822h12.363c12.137,0,12.391.063,13.514,3.374.63,1.87,1.146,8.371,1.146,14.5,0,14.993-1.178,16.371-14,16.371-.727,0-1.413,0-2.057.005h-.912c-.266,0-.506,0-.741,0C363.513-73.982,361.05-74.084,359.72-75.5Zm-18.614,1.5h-.244c-6.421,0-9.957,0-11.641-2.2-1.661-2.167-1.661-6.482-1.661-15.071V-91.6q0-1.752-.009-3.262c-.028-6.885-.041-10.337,1.468-11.939,1.054-1.125,2.9-1.349,5.523-1.349,1.174,0,2.523.044,4.3.107.852.034,1.763.063,2.744.093l12.4.38.336,15.124c.216,9.558.327,14.36-1.685,16.546-1.763,1.909-5.142,1.909-11.281,1.909Zm-70.186-62.616H424.557c-44.838,0-88.275.008-117.667.008C287.908-136.6,274.785-136.6,270.921-136.607Zm153.636,0c73.794-.009,151.385-.019,176.44,0ZM145.737-476.143c-2.771-5.593-5.4-11.381-7.8-17.206-3.007-7.28-5.678-14.636-7.94-21.865-5.754-18.391-8.924-36.074-9.42-52.559a136.943,136.943,0,0,1,1.947-28.123,112.038,112.038,0,0,1,8.659-27.648,219.582,219.582,0,0,1,31.176-48.133,293.194,293.194,0,0,1,35.808-35.576,324.436,324.436,0,0,1,27.3-20.579c-6.062,4.628-14.341,11.336-23.449,19.814a307.579,307.579,0,0,0-32.841,35.7,252.375,252.375,0,0,0-29.91,48.352,125.671,125.671,0,0,0-9.122,27.888,152.98,152.98,0,0,0-2.981,28.326,212.21,212.21,0,0,0,6.372,52.828,280.55,280.55,0,0,0,12.705,39.213q.687,1.685,1.335,3.208Q146.694-474.215,145.737-476.143Zm558.714-15.845a215.834,215.834,0,0,0,9.689-19.4c7.2-16.492,11.679-32.756,13.308-48.343a121.769,121.769,0,0,0-.119-27.108,108.932,108.932,0,0,0-7.132-27.83,154.369,154.369,0,0,0-13.842-26.312,195.384,195.384,0,0,0-17.82-23.165A267.729,267.729,0,0,0,648.151-700.6a336.571,336.571,0,0,0-31.413-20.636,334.482,334.482,0,0,1,33.831,20.055,256.01,256.01,0,0,1,42.266,35.344,180.627,180.627,0,0,1,18.393,22.719,140.276,140.276,0,0,1,14,26.007,101.061,101.061,0,0,1,6.809,27.679,116.555,116.555,0,0,1-.553,27.193c-2.11,15.713-7.245,32.2-15.264,49-3.153,6.606-6.764,13.277-10.734,19.828q-1.413,2.333-2.887,4.645Q703.539-490.37,704.451-491.989Z" transform="translate(90 872)" fill="url(#linear-gradient)"/>
</svg>
