<svg xmlns="http://www.w3.org/2000/svg" xmlns:xlink="http://www.w3.org/1999/xlink" width="511.997" height="487.688" viewBox="0 0 511.997 487.688">
  <defs>
    <linearGradient id="linear-gradient" x1="0.5" x2="0.5" y2="1" gradientUnits="objectBoundingBox">
      <stop offset="0" stop-color="#fff"/>
      <stop offset="1" stop-color="gray"/>
    </linearGradient>
  </defs>
  <g id="offers" transform="translate(-0.001 -12.155)">
    <g id="Group_27" data-name="Group 27">
      <g id="Group_26" data-name="Group 26">
        <path id="Path_128" data-name="Path 128" d="M500.12,221.546,477.181,191.7a89.5,89.5,0,0,1-.294-11.087c.018-1.428.035-2.823.035-4.159V138.7c0-24.669-16.771-44.825-43.768-52.6L395.422,75.23a16.474,16.474,0,0,1-9.011-6.468L364.292,36.6A56.655,56.655,0,0,0,298.7,15.429L261.6,28.62a16.773,16.773,0,0,1-11.2,0L213.3,15.431A56.653,56.653,0,0,0,147.71,36.606L125.59,68.764a16.48,16.48,0,0,1-8.446,6.294L77.838,83.316q-.718.151-1.423.354C51.4,90.875,34.444,113.612,35.078,139.038V177.8c0,1.348.028,2.76.058,4.212.06,2.875.156,7.572-.336,9.494L11.857,221.575a55.9,55.9,0,0,0,.021,68.872l22.98,29.93c.421,1.819.341,6.418.281,9.833-.031,1.75-.061,3.54-.061,5.364v38.832C34.5,398.238,51.243,417.951,78.846,425.9l37.732,10.867a16.485,16.485,0,0,1,9.012,6.468l22.118,32.157A56.651,56.651,0,0,0,213.3,496.567l37.1-13.189a16.773,16.773,0,0,1,11.2,0l37.1,13.189a56.65,56.65,0,0,0,65.591-21.175l22.12-32.158a16.494,16.494,0,0,1,9.011-6.467L433.152,425.9c24.534-7.065,44.574-35.13,43.759-61.283a20,20,0,0,0-39.978,1.246c.24,7.7-7.949,19.615-14.851,21.6L384.35,398.332a56.589,56.589,0,0,0-30.9,22.235l-22.119,32.158a16.6,16.6,0,0,1-19.239,6.156l-37.1-13.189a56.878,56.878,0,0,0-37.992,0l-37.1,13.189a16.6,16.6,0,0,1-19.24-6.156l-22.118-32.157a56.577,56.577,0,0,0-30.9-22.235L89.917,387.466C88.372,387.02,74.83,382.9,75.066,375.3q.011-.311.01-.623V335.575c0-1.586.029-3.145.055-4.667.182-10.418.407-23.375-8.281-34.543L43.555,266.027l-.118-.152a15.982,15.982,0,0,1,0-19.751l.154-.2,23.28-30.509c8.729-11.246,8.443-25.069,8.254-34.227-.024-1.167-.049-2.3-.049-3.386V138.76q0-.311-.01-.623c-.216-6.967,4.735-13.546,11.849-15.857l39.311-8.259q.718-.151,1.423-.354a56.589,56.589,0,0,0,30.9-22.235l22.119-32.158A16.6,16.6,0,0,1,199.9,53.118L237,66.307a56.884,56.884,0,0,0,37.992,0l37.1-13.189a16.6,16.6,0,0,1,19.239,6.156l22.119,32.157a56.574,56.574,0,0,0,30.9,22.236l37.732,10.867c5.543,1.6,14.841,5.559,14.841,14.164v37.757c0,1.175-.015,2.4-.031,3.656-.147,11.642-.328,26.02,8.788,36.243l22.77,29.626.112.145a15.982,15.982,0,0,1,0,19.751,20,20,0,1,0,31.488,24.663A55.9,55.9,0,0,0,500.12,221.546Z" fill="url(#linear-gradient)"/>
        <path id="Path_129" data-name="Path 129" d="M194.3,373.726a19.986,19.986,0,0,0,27.1-8.083l108.1-199.986a20,20,0,1,0-35.184-19.019l-108.1,199.986A20,20,0,0,0,194.3,373.726Z" fill="url(#linear-gradient)"/>
        <path id="Path_130" data-name="Path 130" d="M223,186.145a50,50,0,1,0-50,50A50.053,50.053,0,0,0,223,186.145Zm-50,10a10,10,0,1,1,10-10A10.01,10.01,0,0,1,173.005,196.144Z" fill="url(#linear-gradient)"/>
        <path id="Path_131" data-name="Path 131" d="M337.993,376.131a50,50,0,1,0-50-50A50.054,50.054,0,0,0,337.993,376.131Zm0-60a10,10,0,1,1-10,10A10.01,10.01,0,0,1,337.993,316.136Z" fill="url(#linear-gradient)"/>
      </g>
    </g>
  </g>
</svg>
