<svg xmlns="http://www.w3.org/2000/svg" xmlns:xlink="http://www.w3.org/1999/xlink" width="403" height="900" viewBox="0 0 403 900">
  <defs>
    <linearGradient id="linear-gradient" x1="0.5" x2="0.5" y2="1" gradientUnits="objectBoundingBox">
      <stop offset="0" stop-color="#ffc11f"/>
      <stop offset="0.246" stop-color="#fe650d"/>
      <stop offset="0.493" stop-color="#f33c04"/>
      <stop offset="0.739" stop-color="#da1f05"/>
      <stop offset="1" stop-color="#a10100"/>
    </linearGradient>
  </defs>
  <g id="Group_14" data-name="Group 14" transform="translate(227 -695)">
    <rect id="Rectangle_2" data-name="Rectangle 2" width="403" height="900" transform="translate(-227 695)" fill="#fff"/>
    <g id="Group_13" data-name="Group 13" transform="translate(11 145)">
      <g id="Group_3" data-name="Group 3" transform="translate(-215 906.712)">
        <g id="Group_2" data-name="Group 2" transform="translate(0 0)">
          <path id="Path_98" data-name="Path 98" d="M253.728,50.473c-3.4-5.318-5.519-15.145-4.394-20.345.09-.417.26-1.405.378-2.2A26.847,26.847,0,0,1,270.264,5.5a12.319,12.319,0,0,1,2.074-.357l.72-.014-.991.5a17.738,17.738,0,0,0-8,9.057c-.276.644-.572,1.334-.659,1.532a38.83,38.83,0,0,0-1.633,5.58c-.084.5-.293,1.722-.464,2.714a41.1,41.1,0,0,0-.3,7.031,44,44,0,0,0,.759,10.016,28.964,28.964,0,0,0,5.7,12.6,16.8,16.8,0,0,0,22.175,2.789c.4-.275,1.062-.731,1.479-1.016a30.337,30.337,0,0,0,5.524-5.817c.888-1.334.487-.2-.444,1.258-4.49,7.014-12.468,10.486-20.557,10.485C267.162,61.852,258.555,58.031,253.728,50.473ZM33.114,60.216a19.718,19.718,0,0,1-7.385-5.008,23.978,23.978,0,0,1-4.975-8.587,37.544,37.544,0,0,1-1.823-12.368A37.106,37.106,0,0,1,21,21.442a29.294,29.294,0,0,1,5.531-9.54A23.721,23.721,0,0,1,34.5,5.972a22.653,22.653,0,0,1,9.455-2.044,24.987,24.987,0,0,1,8.806,1.533,19.387,19.387,0,0,1,7.107,4.566A21.5,21.5,0,0,1,64.6,17.591a29.419,29.419,0,0,1,1.73,10.528,27.819,27.819,0,0,1-1.2,8.348,22.163,22.163,0,0,1-3.244,6.61A15.466,15.466,0,0,1,57.091,47.4a11.611,11.611,0,0,1-5.84,1.567,6.589,6.589,0,0,1-4.295-1.431Q45.2,46.11,45.319,42.566h-.186a18.275,18.275,0,0,1-3.43,4.5,6.866,6.866,0,0,1-4.913,1.908,5.429,5.429,0,0,1-4.511-2.59,12.238,12.238,0,0,1-1.854-7.223,34.819,34.819,0,0,1,1.02-8.586A28.126,28.126,0,0,1,34.2,23.52a15.986,15.986,0,0,1,4.017-4.8,7.83,7.83,0,0,1,4.882-1.772,6.055,6.055,0,0,1,2.966.682,8.875,8.875,0,0,1,2.287,1.84l1.545-2.112H53.97l-2.41,18.6q-.742,6.2,1.792,6.2a4.309,4.309,0,0,0,2.441-.818,7.273,7.273,0,0,0,2.163-2.521A16,16,0,0,0,59.5,34.457a29.772,29.772,0,0,0,.587-6.337,24.075,24.075,0,0,0-1.2-8.075,14.51,14.51,0,0,0-3.368-5.52,13.355,13.355,0,0,0-5.129-3.169A19.792,19.792,0,0,0,43.9,10.334a16.108,16.108,0,0,0-7.385,1.738,17.874,17.874,0,0,0-5.932,4.873,24.081,24.081,0,0,0-3.955,7.5,30.5,30.5,0,0,0-1.452,9.677q0,10.426,4.7,15.878t13.163,5.452a15.049,15.049,0,0,0,3.553-.477,13.382,13.382,0,0,0,3.491-1.363l1.792,5.929a16.176,16.176,0,0,1-4.326,1.738,22.256,22.256,0,0,1-5.314.579A25.069,25.069,0,0,1,33.114,60.216Zm8-35.334a9.767,9.767,0,0,0-2.039,3,19.585,19.585,0,0,0-1.36,4.293,24.954,24.954,0,0,0-.494,5.009,7.763,7.763,0,0,0,.71,3.68,2.341,2.341,0,0,0,2.194,1.294,3.779,3.779,0,0,0,2.75-1.669A16.283,16.283,0,0,0,45.2,36.774l1.421-11.585a3.508,3.508,0,0,0-2.9-1.431A3.677,3.677,0,0,0,41.116,24.883ZM232.824,59.446c-1.312-2.24-1.385-3.23-1.125-15.52.275-13.08.11-14.985-1.474-17-1.613-2.053-4.776-2.4-8-.879-1.513.715-1.616.633-.357-.284a16.693,16.693,0,0,1,7.918-3.119c.893-.09,1.666-.174,1.718-.187,1.528-.392,5.35.994,6.877,2.493,2.727,2.678,3.006,4.987,2.6,21.55a60.715,60.715,0,0,0,.059,8.2c.481,3.3,2.206,5.079,4.607,4.75s-1.32,1.408-4.324,2.015a15.643,15.643,0,0,1-3.084.332C235.66,61.8,233.726,60.985,232.824,59.446Zm102.66,2.282c-4.556-.874-5.176-2.92-4.812-15.87.466-16.562-.031-19.415-3.594-20.629a8.88,8.88,0,0,0-5.688.738c-1.257.6-1.216.415.109-.512a16.3,16.3,0,0,1,5.174-2.4c4.41-1.16,9.052-.189,11.055,2.308,2.4,2.991,2.534,4.206,2.245,19.96-.225,12.249.232,13.772,4.21,14.067l1.352.1-1.261.593c-.694.326-1.405.669-1.581.761a22.077,22.077,0,0,1-6.295.942A5.243,5.243,0,0,1,335.484,61.728ZM133.941,51.951a22.591,22.591,0,0,1,.137-19.6c2.732-5.134,8.347-9.056,13.768-9.616.348-.037.732-.079.857-.094.375-.049.264.066-.634.647-2.807,1.819-4.72,5.846-5.842,12.3a74.59,74.59,0,0,0,.015,10.728,42.69,42.69,0,0,0,1.075,5.318l.565,1.893c.983,3.308,3.467,6.66,5.857,7.907l.541.281-.831.008h-.1C143.464,61.726,136.719,57.453,133.941,51.951Zm22.11,9.52a12.373,12.373,0,0,0,2.427-2.188,19.344,19.344,0,0,0,2.208-3.95c.094-.3.239-.7.321-.9,1.987-4.8,2.18-15.218.4-21.636-1.236-4.456-3.6-8.217-6.069-9.675l-.909-.536,1.442.122a18.219,18.219,0,0,1,15.924,12.254c3.842,11.574-1.983,23.544-12.721,26.138a18.609,18.609,0,0,1-2.947.577C155.895,61.676,155.875,61.607,156.051,61.471Zm153.606.083h-9.006l1.151-.676a6.17,6.17,0,0,0,2.894-3.592c.408-1.318.585-46.622.191-48.7a5.9,5.9,0,0,0-3.454-4.455c-1.248-.491-1.147-.663.6-1.011,1.475-.294,1.806-.372,4.109-.967,1.333-.344,6.982-2.219,7.391-2.453a.71.71,0,0,1,.451-.1c.118.035.211,9.75.27,28.434.083,26,.117,28.454.395,29.259a6.329,6.329,0,0,0,2.429,3.27c1.615.935,2.24.991-4.3.991Zm-131.069-.541a6.922,6.922,0,0,0,2.556-2.352c.932-1.936.869-.844.869-14.776V30.994l-.505-1.082a6.058,6.058,0,0,0-3.913-3.333c-.493-.136-.037-.292,2.885-.984.744-.175,2.2-.562,3.245-.858s2.136-.6,2.434-.685c.625-.17,2.715-.861,3.245-1.074.2-.079.564-.229.811-.334,1.179-.5,1.082-1.956,1.083,16.147,0,20.4-.036,20.154,3.31,22.043a6.018,6.018,0,0,1,1.016.647c0,.04-3.975.073-8.834.073C178.17,61.553,177.151,61.486,178.588,61.012Zm-60.127.531-9.465,0,.9-.422a6.352,6.352,0,0,0,3.342-3.823c.419-1.218.55-15.368.154-16.643-1.573-5.064-7.157-8.248-15.712-8.962a5.333,5.333,0,0,1-1.487-.246c-.156-.252,2.444-.357,8.885-.358,7.246,0,7.488-.036,8.148-1.117.547-.9.568-18.791.024-20.374a6.157,6.157,0,0,0-3.153-3.8c-.453-.24-.792-.47-.753-.509s17.453-.032,18.4.022c.1.005-.225.2-.721.437a6.618,6.618,0,0,0-3.292,3.842c-.505,1.379-.481,46.16.025,47.642a5.418,5.418,0,0,0,.586,1.277,1,1,0,0,1,.247.459c0,.321,1.34,1.487,2.344,2.039l.992.547Zm-44.172-.061a3.284,3.284,0,0,1,.767-.432,6.927,6.927,0,0,0,2.9-3.1l.575-1.172V33.518c0-22.6-.01-23.282-.35-24.158a6.406,6.406,0,0,0-3.36-3.731,1.341,1.341,0,0,1-.527-.324c0-.064,17.441-.066,18.571,0a4.3,4.3,0,0,1-.811.426,6.574,6.574,0,0,0-3.376,4.134c-.383,1.322-.414,45.295-.033,46.823a6.419,6.419,0,0,0,3.413,4.4l.9.445-9.33.01H82.354C77.816,61.544,74.288,61.518,74.288,61.483Zm272.419-.009a6.883,6.883,0,0,1,1.185-.662,5.881,5.881,0,0,0,3.14-3.579c.523-1.627.468-25.22-.064-27.952-.629-3.229-1.6-4.765-3.736-5.887l-.976-.514,2.134-.09c3.15-.133,3,.136,3-5.555,0-7.54.851-11.07,3.343-13.864.912-1.022,3.329-2.757,3.841-2.757A1.321,1.321,0,0,0,359.1.428,11.016,11.016,0,0,1,360.95-.1c2.438-.539,2.431-.542,1.548.514-1.455,1.742-1.747,3.815-1.853,13.171-.089,7.723-.061,8.132.58,8.773l.431.431,4.921.011c4.927.012,5.374.093,2.848.515-6.2,1.035-7.968,2.923-8.569,9.119-.359,3.706-.371,22.587-.015,24.069a5.979,5.979,0,0,0,3.625,4.5l1.082.525-9.42.01h-1.134C350.342,61.544,346.707,61.514,346.707,61.474Zm-139.139.037-4.462-.048.8-.425c3.431-1.83,3.684-3.076,3.524-17.423-.145-13.077-.35-14.892-1.9-16.821-1.647-2.046-5.181-2.234-8.514-.453-.769.411-.767.167,0-.427A17.6,17.6,0,0,1,205,22.686c.941-.117,1.808-.223,1.924-.234a9.255,9.255,0,0,1,7.841,3.834c1.6,2.479,1.625,2.7,1.759,17.418.064,7.09.183,13.053.265,13.252.892,2.169,1.738,3.213,3.264,4.026l.9.481-4.462.048c-1.227.013-2.845.02-4.462.02S208.8,61.524,207.568,61.511ZM294.98,25.134a56.235,56.235,0,0,0-2.532-6.915c-2.923-6.686-6.138-10.666-10.145-12.562l-1.132-.534h.861a10.219,10.219,0,0,1,2.164.361c6.2,1.717,8.784,1.96,11.169,1.053,1.806-.687,1.69-.752,1.393.77-.184.944-.357,2.237-.724,5.388-.192,1.648-.486,6.184-.684,10.547a9.351,9.351,0,0,1-.188,2.347C295.121,25.588,295.065,25.411,294.98,25.134ZM372.682,13c-.055-5.03-1.708-10.472-3.858-12.7l-.738-.766h.824c2.156,0,7.553,1.448,7.982,2.143a11.78,11.78,0,0,1-.884,2.451,67.828,67.828,0,0,0-2.862,8.477l-.451,1.622Z" transform="translate(-18.931 0.466)" fill="url(#linear-gradient)"/>
        </g>
      </g>
      <path id="Path_97" data-name="Path 97" d="M9.567,82C6.757,82,0,81.268,0,78.291V5.4A5.261,5.261,0,0,1,5.1,0H76.9A5.261,5.261,0,0,1,82,5.4V78.291C82,81.268,78.3,82,75.486,82ZM19.34,50.372l.048,8.588,1.305,1.069,4.816.008V77.087h33.2V60.072l6.056-.043.777-1.4V41.623l-.39.078-.02,0a.03.03,0,0,1-.029-.013c-.018-.032.025-.116.071-.205l.012-.023c.047-.094.088-.181.065-.22a.051.051,0,0,0-.048-.022.2.2,0,0,0-.05.007c-.167.04-.357.1-.578.171a10.668,10.668,0,0,1-2.766.56c-.736.045-1.372.084-2,.084a18.051,18.051,0,0,1-2.346-.168,6.976,6.976,0,0,1-2.459-.611c-.158-.069-.338-.147-.557-.235-1.13-.457-1.5-.9-1.5-.981,0-.008.007-.012.02-.012a3.23,3.23,0,0,1,.592.23,16.086,16.086,0,0,0,2.714.963l.452.1a7.734,7.734,0,0,0,2.026.309c.249,0,.548-.012.97-.037a14.443,14.443,0,0,0,3.995-1.167c.116-.048.207-.086.265-.108a20.711,20.711,0,0,0,5.059-2.807,19.969,19.969,0,0,0,3.941-3.94,17.874,17.874,0,0,0,2.558-4.722,14.908,14.908,0,0,0,.129-9.9,17.75,17.75,0,0,0-2.2-4.437,19.518,19.518,0,0,0-7.787-6.643A28.954,28.954,0,0,0,59.724,5.83a27.738,27.738,0,0,0-6.078-.68l-.639,0H53l-.753,0A32.615,32.615,0,0,0,47.7,5.4a14.017,14.017,0,0,0-4.72,1.44,15.109,15.109,0,0,0-4.523,3.878c-.134.127-3.277,3.107-3.415,3.107a.073.073,0,0,1-.075-.049.375.375,0,0,1-.016-.136,22.362,22.362,0,0,1,2.379-3.114,46.622,46.622,0,0,1,3.355-3.686c.2-.175.34-.309.32-.436C40.969,6.2,40.535,6,39.3,5.5A33.042,33.042,0,0,0,28.538,3.535a10.233,10.233,0,0,0-2.481.24,5.387,5.387,0,0,1-1.027.128,6.158,6.158,0,0,0-1.126.149c-1.7.428-3.4.913-4.037,1.152a7.373,7.373,0,0,1-.82.274,8.968,8.968,0,0,0-1,.447A23.937,23.937,0,0,0,10.176,11.9a18.353,18.353,0,0,0-2.422,3.667,16.086,16.086,0,0,0-1.361,3.945,15.054,15.054,0,0,0,.212,6.907,17.746,17.746,0,0,0,3.514,6.692,21.975,21.975,0,0,0,5.662,4.747,22.422,22.422,0,0,0,6.9,2.788l.224.046.049.01.138.028.017,0,1.045.215a23.056,23.056,0,0,0,4.637.435,31.874,31.874,0,0,0,6.637-.719l-1.311,1.484a30,30,0,0,1-3.728.66,20.25,20.25,0,0,1-2.353.1,31.045,31.045,0,0,1-4.4-.234c-.333-.079-1.071-.221-1.646-.318a7.452,7.452,0,0,1-1.211-.275,3.586,3.586,0,0,0-.829-.2l-.654-.1ZM57.4,75.7H26.82V58.14h-.655v-.021l-2.915-.027-3.161-.03,1.27-1.462c.7-.81,5.222-5.932,10.073-11.417l.849-.961,1.833-2.074c.183-.047.4-.1.716-.191,2.333-.637,5.827-2.113,6.031-2.547.052-.111.063-.195.032-.248s-.092-.073-.191-.073a3.1,3.1,0,0,0-.964.273,26.788,26.788,0,0,1-4.313,1.3c3.145-3.56,5.421-6.14,5.8-6.575a9.315,9.315,0,0,1,1.1-1.153c.068,0,2.407,2.568,5.213,5.724,2.843,3.2,5.129,5.7,5.205,5.7a1.922,1.922,0,0,0,.155-.817l.05-.779,1.4.04c1.085.032,1.682.049,2.364.052h.705v3.474l.05,3.566,3.65,4.111,3.651,4.112H58.345l-.186-.21h-.1v.231H57.4V75.7h0Zm-15.035-.654h15v-.039H56.289V58.632H28.1V75.047Zm-14.478,0H28.1l-.208-.039ZM39.706,43.073c-1.321,1.511-4.787,5.439-7.89,8.944l-4.808,5.43H57.749l-4.319-4.869c-2.706-3.05-6.253-7.061-7.906-8.942a43.958,43.958,0,0,0-3.163-3.4A30.955,30.955,0,0,0,39.706,43.073ZM46.783,73.76c-.058-.121-.094-2.893-.1-5.418s.006-5.35.063-5.586L46.8,62.5l2.672.03,2.673.03.026,5.617c.02,4.409,0,5.636-.1,5.707A6.721,6.721,0,0,1,50.285,74,15.037,15.037,0,0,1,46.783,73.76ZM35.541,67.9v-1.23c0-.035,0-.069,0-.1v-.01c0-.516,0-.775.116-.9.1-.1.269-.121.64-.121h.368c.97,0,.991.005,1.087.288a4.335,4.335,0,0,1-.022,1.939,2.553,2.553,0,0,1-1.154.135Zm-.351-.056H32.983l-.029-1c0-.043,0-.085,0-.126v0l0-.068v-.006c-.018-.556-.027-.834.1-.97.107-.117.307-.13.707-.13h.33c1.016,0,1.057.009,1.112.253a7.679,7.679,0,0,1,.026,1.153l-.029.9h0Zm.49-2.547c-.142-.15-.141-.467-.139-1.16v0c0-.035,0-.072,0-.109V62.505H36.6c1.037,0,1.058.005,1.154.288a5.969,5.969,0,0,1,.1,1.238c0,1.281-.1,1.4-1.2,1.4h-.317C36,65.431,35.794,65.422,35.68,65.3Zm-1.59.129h-.021c-.548,0-.85,0-.994-.188s-.142-.554-.142-1.287v-.029q0-.15,0-.279c0-.588,0-.883.125-1.02.09-.1.247-.115.472-.115.1,0,.215,0,.368.009l.234.008,1.059.032.029,1.292c.018.816.028,1.227-.144,1.413-.151.163-.439.163-.964.163Zm-6-5.348h0Zm13.123,0c6.3,0,12.931,0,15.071,0ZM28.1,60.081Z" transform="translate(-77.016 824.712)" fill="url(#linear-gradient)"/>
    </g>
  </g>
</svg>
